<?xml version="1.0" encoding="UTF-8" standalone="no"?>
<!DOCTYPE svg PUBLIC "-//W3C//DTD SVG 1.1//EN"
 "http://www.w3.org/Graphics/SVG/1.1/DTD/svg11.dtd">
<!-- Generated by graphviz version 12.1.2 (20240928.0832)
 -->
<!-- Pages: 1 -->
<svg width="225pt" height="267pt"
 viewBox="0.00 0.00 224.64 266.50" xmlns="http://www.w3.org/2000/svg" xmlns:xlink="http://www.w3.org/1999/xlink">
<g id="graph0" class="graph" transform="scale(1 1) rotate(0) translate(4 262.5)">
<polygon fill="white" stroke="none" points="-4,4 -4,-262.5 220.64,-262.5 220.64,4 -4,4"/>
<g id="clust1" class="cluster">
<title>cluster_data</title>
<polygon fill="none" stroke="black" points="12.77,-8 12.77,-84.5 82.77,-84.5 82.77,-8 12.77,-8"/>
<text text-anchor="middle" x="63.52" y="-15.2" font-family="Times,serif" font-size="14.00">data</text>
</g>
<!-- latent_var -->
<g id="node1" class="node">
<title>latent_var</title>
<ellipse fill="white" stroke="black" cx="47.77" cy="-130.5" rx="47.77" ry="18"/>
<text text-anchor="middle" x="47.77" y="-125.45" font-family="Times,serif" font-size="14.00">latent_var</text>
</g>
<!-- obs -->
<g id="node4" class="node">
<title>obs</title>
<ellipse fill="gray" stroke="black" cx="47.77" cy="-58.5" rx="27" ry="18"/>
<text text-anchor="middle" x="47.77" y="-53.45" font-family="Times,serif" font-size="14.00">obs</text>
</g>
<!-- latent_var&#45;&gt;obs -->
<g id="edge1" class="edge">
<title>latent_var&#45;&gt;obs</title>
<path fill="none" stroke="black" d="M47.77,-112.2C47.77,-104.91 47.77,-96.23 47.77,-88.04"/>
<polygon fill="black" stroke="black" points="51.27,-88.12 47.77,-78.12 44.27,-88.12 51.27,-88.12"/>
</g>
<!-- alpha0 -->
<g id="node2" class="node">
<title>alpha0</title>
<polygon fill="white" stroke="none" points="40.77,-229.75 4.77,-229.75 4.77,-213.25 40.77,-213.25 40.77,-229.75"/>
<text text-anchor="middle" x="22.77" y="-216.45" font-family="Times,serif" font-size="14.00">alpha0</text>
</g>
<!-- alpha0&#45;&gt;latent_var -->
<g id="edge2" class="edge">
<title>alpha0&#45;&gt;latent_var</title>
<path fill="none" stroke="black" d="M24.73,-213.52C27.95,-202.05 34.54,-178.6 39.84,-159.71"/>
<polygon fill="black" stroke="black" points="43.2,-160.71 42.53,-150.14 36.46,-158.82 43.2,-160.71"/>
</g>
<!-- beta0 -->
<g id="node3" class="node">
<title>beta0</title>
<polygon fill="white" stroke="none" points="88.39,-229.75 59.14,-229.75 59.14,-213.25 88.39,-213.25 88.39,-229.75"/>
<text text-anchor="middle" x="73.77" y="-216.45" font-family="Times,serif" font-size="14.00">beta0</text>
</g>
<!-- beta0&#45;&gt;latent_var -->
<g id="edge3" class="edge">
<title>beta0&#45;&gt;latent_var</title>
<path fill="none" stroke="black" d="M71.73,-213.52C68.38,-202.05 61.53,-178.6 56.01,-159.71"/>
<polygon fill="black" stroke="black" points="59.38,-158.75 53.21,-150.13 52.66,-160.71 59.38,-158.75"/>
</g>
<!-- distribution_description_node -->
<g id="node5" class="node">
<title>distribution_description_node</title>
<text text-anchor="start" x="114.89" y="-241.2" font-family="Times,serif" font-size="14.00">latent_var ~ Beta</text>
<text text-anchor="start" x="114.89" y="-224.7" font-family="Times,serif" font-size="14.00">obs ~ Bernoulli</text>
<text text-anchor="start" x="114.89" y="-208.2" font-family="Times,serif" font-size="14.00">alpha0 : Real()</text>
<text text-anchor="start" x="114.89" y="-191.7" font-family="Times,serif" font-size="14.00">beta0 : Real()</text>
</g>
</g>
</svg>
